<svg xmlns="http://www.w3.org/2000/svg" xmlns:xlink="http://www.w3.org/1999/xlink" width="36" height="37" viewBox="0 0 36 37">
    <defs>
        <circle id="a" cx="18" cy="18" r="18"/>
    </defs>
    <g fill="none" fill-rule="evenodd" transform="translate(0 .6)">
        <mask id="b" fill="#fff">
            <use xlink:href="#a"/>
        </mask>
        <use fill="#F4F6F8" xlink:href="#a"/>
        <g mask="url(#b)">
            <path fill="#F4D05D" d="M26.813 39.375H8.006c-5.733 0-10.38-4.62-10.38-10.319V10.362C-2.374 4.664 2.273.044 8.006.044h18.807c5.733 0 10.38 4.62 10.38 10.318v18.694c0 5.699-4.647 10.319-10.38 10.319"/>
            <path fill="#2D2E2C" d="M10.544 15.62c0 1.589-.768 2.876-1.716 2.876S7.11 17.209 7.11 15.62c0-1.588.769-2.875 1.717-2.875.948 0 1.716 1.287 1.716 2.875M27.708 15.62c0 1.589-.769 2.876-1.717 2.876-.947 0-1.716-1.287-1.716-2.876 0-1.588.769-2.875 1.716-2.875.948 0 1.717 1.287 1.717 2.875M23.301 22.143c1.554 0 2.562 1.625 1.87 3.008-1.305 2.608-4.253 4.427-7.682 4.427-3.428 0-6.377-1.82-7.681-4.427-.692-1.383.316-3.008 1.87-3.008H23.3"/>
        </g>
    </g>
</svg>
