<svg xmlns="http://www.w3.org/2000/svg" width="83" height="82" viewBox="0 0 83 82">
    <g fill="none" fill-rule="evenodd" transform="translate(.8)">
        <circle cx="40.8" cy="40.8" r="40.8" fill="#7BE0EF"/>
        <g fill="#FFF">
            <path stroke="#FFF" stroke-width="3.065" d="M24.88 49.293c-.4-1.083-.917-2.713-1.54-4.878l-.298-1.029-1.068-.075a6.497 6.497 0 0 1-6.041-6.48v-5.397a9.502 9.502 0 0 1 9.501-9.501h11.532a9.502 9.502 0 0 1 9.501 9.501v2.372a9.502 9.502 0 0 1-9.501 9.501h-6.172l-.453.474c-2.139 2.239-3.788 3.915-4.943 5.023a44.93 44.93 0 0 1-.517.489z"/>
            <path stroke="#7BE0EF" stroke-width="2.786" d="M58.966 67.572c.05-.126.102-.262.156-.407.468-1.26 1.072-3.18 1.805-5.748l.268-.938.973-.069a7.79 7.79 0 0 0 7.239-7.77V43.63a8.638 8.638 0 0 0-8.638-8.638H42.431a8.638 8.638 0 0 0-8.638 8.638v8.138a8.638 8.638 0 0 0 8.638 8.638h9.484l.412.435c2.448 2.587 4.336 4.524 5.661 5.807.373.362.7.67.978.923z"/>
        </g>
    </g>
</svg>
